<?xml version="1.0" encoding="utf-8"?>
<!-- Generator: Adobe Illustrator 25.2.2, SVG Export Plug-In . SVG Version: 6.00 Build 0)  -->
<svg version="1.1" id="Ebene_1" xmlns="http://www.w3.org/2000/svg" xmlns:xlink="http://www.w3.org/1999/xlink" x="0px" y="0px"
	 viewBox="0 0 80 80" style="enable-background:new 0 0 80 80;" xml:space="preserve">
<style type="text/css">
	.st0{fill:none;stroke:#DF2935;stroke-linecap:square;stroke-linejoin:round;}
	.st1{fill:#DF2935;stroke:#DF2935;stroke-linecap:square;stroke-linejoin:round;}
	.st2{fill:#FFFFFF;}
	.st3{opacity:0.9;fill:#DF2935;enable-background:new    ;}
</style>
<polygon class="st0" points="5.1,61 39.7,81 39.7,41 5.1,21 "/>
<polygon class="st0" points="39.7,1 74.3,21 39.7,41 5.1,21 "/>
<polygon class="st1" points="74.3,61 39.7,81 39.7,41 74.3,21 "/>
<path class="st2" d="M51.6,47.5v3L48,52.6v15.3l-2.7,1.6V54.2l-3.7,2.1v-3L51.6,47.5z"/>
<path class="st2" d="M63,41v3l-3.7,2v15.4L56.6,63V47.6l-3.7,2.1v-3L63,41z"/>
<path class="st2" d="M74.3,34.4v3l-3.7,2.1v15.3l-2.8,1.6V41.1l-3.7,2.1v-3L74.3,34.4z"/>
<polygon class="st3" points="63.6,20.4 61.3,19.1 65.6,16.6 67.8,17.9 "/>
<polygon class="st3" points="59.9,18.2 57.6,16.9 61.9,14.4 64.1,15.8 "/>
</svg>
