<svg xmlns="http://www.w3.org/2000/svg" viewBox="0 0 80 80"><polygon points="11.99 56.98 39.72 73 39.72 40.97 11.99 24.96 11.99 56.98" style="fill:none;stroke:#df2935;stroke-linecap:square;stroke-linejoin:round"/><polygon points="39.72 8.95 67.45 24.96 39.72 40.97 11.99 24.96 39.72 8.95" style="fill:none;stroke:#df2935;stroke-linecap:square;stroke-linejoin:round"/><polygon points="67.45 56.98 39.72 73 39.72 40.97 67.45 24.96 67.45 56.98" style="fill:#df2935;stroke:#df2935;stroke-linecap:square;stroke-linejoin:round"/><path d="M49.27,46.22V48.6l-2.93,1.69V62.57l-2.2,1.28V51.56l-2.93,1.69V50.88Z" style="fill:#fff"/><path d="M58.36,41v2.37L55.43,45V57.33l-2.2,1.27V46.31L50.3,48V45.63Z" style="fill:#fff"/><path d="M67.45,35.73V38.1l-2.93,1.69V52.08l-2.21,1.27V41.07l-2.93,1.69V40.39Z" style="fill:#fff"/><polygon points="58.84 24.47 57.03 23.42 60.44 21.45 62.25 22.5 58.84 24.47" style="fill:#df2935;opacity:0.9"/><polygon points="55.86 22.75 54.05 21.7 57.47 19.73 59.28 20.78 55.86 22.75" style="fill:#df2935;opacity:0.9"/></svg>